# xmcd
# Copyright (C) 1995-1998 Ti Kan
#
# Track frame offsets:
#       150
#       7320
#       13801
#       19789
#       29801
#       38780
#
# Disc length: 523 seconds
#
# Revision: 0
# Processed by: cddbd v1.5.2PL0 Copyright (c) Steve Scherf et al.
# Submitted via: CD-Import v1.0
#
DISCID=4a020906
DTITLE=Andrew - 
DYEAR=1900
DGENRE=
TTITLE0=Kulinarium 12.3.
TTITLE1=Kulinarium 12.3.
TTITLE2=Kulinarium 11.3.
TTITLE3=Kulinarium 10.3.
TTITLE4=Kulinarium 9.3.
TTITLE5=Lied Der Woche
EXTD=
EXTT0=
EXTT1=
EXTT2=
EXTT3=
EXTT4=
EXTT5=
PLAYORDER=
